HIERARCHY
ROOT Hips
{
  OFFSET 0.0000 0.0000 0.0000
  CHANNELS 6 Xposition Yposition Zposition Zrotation Xrotation Yrotation
  JOINT LeftHip
  {
    OFFSET 5.5000 0.0000 0.0000
    CHANNELS 3 Zrotation Xrotation Yrotation
    JOINT LeftKnee
    {
      OFFSET 0.0000 -17.5000 0.0000
      CHANNELS 3 Zrotation Xrotation Yrotation
      JOINT LeftAnkle
      {
        OFFSET 0.0000 -17.0000 0.0000
        CHANNELS 3 Zrotation Xrotation Yrotation
        End Site
        {
            OFFSET 0.0000 -4.7000 -2.0000
        }
      }
    }
  }
  JOINT RightHip
  {
    OFFSET -5.5000 0.0000 0.0000
    CHANNELS 3 Zrotation Xrotation Yrotation
    JOINT RightKnee
    {
      OFFSET 0.0000 -17.5000 0.0000
      CHANNELS 3 Zrotation Xrotation Yrotation
      JOINT RightAnkle
      {
        OFFSET 0.0000 -17.0000 0.0000
        CHANNELS 3 Zrotation Xrotation Yrotation
        End Site
        {
            OFFSET 0.0000 -4.7000 -2.0000
        }
      }
    }
  }
  JOINT Chest
  {
    OFFSET 0.0000 3.0000 -1.0000
    CHANNELS 3 Zrotation Xrotation Yrotation
    JOINT LeftCollar
    {
      OFFSET -0.0000 18.0000 1.0000
      CHANNELS 3 Zrotation Xrotation Yrotation
      JOINT LeftShoulder
      {
        OFFSET 6.5000 0.0000 0.0000
        CHANNELS 3 Zrotation Xrotation Yrotation
        JOINT LeftElbow
        {
          OFFSET -0.0000 -11.0000 0.0000
          CHANNELS 3 Zrotation Xrotation Yrotation
          JOINT LeftWrist
          {
            OFFSET -0.0000 -10.5000 0.0000
            CHANNELS 3 Zrotation Xrotation Yrotation
            End Site
            {
                OFFSET 0.0000 -6.0000 0.0000
            }
          }
        }
      }
    }
    JOINT RightCollar
    {
      OFFSET -0.0000 18.0000 1.0000
      CHANNELS 3 Zrotation Xrotation Yrotation
      JOINT RightShoulder
      {
        OFFSET -6.5000 0.0000 0.0000
        CHANNELS 3 Zrotation Xrotation Yrotation
        JOINT RightElbow
        {
          OFFSET 0.0000 -11.0000 0.0000
          CHANNELS 3 Zrotation Xrotation Yrotation
          JOINT RightWrist
          {
            OFFSET -0.0000 -10.5000 0.0000
            CHANNELS 3 Zrotation Xrotation Yrotation
            End Site
            {
                OFFSET 0.0000 -6.0000 -0.0000
            }
          }
        }
      }
    }
    JOINT Neck
    {
      OFFSET -0.0000 18.0000 1.0000
      CHANNELS 3 Zrotation Xrotation Yrotation
      JOINT Head
      {
        OFFSET 0.0000 3.0000 0.0000
        CHANNELS 3 Zrotation Xrotation Yrotation
        End Site
        {
            OFFSET 0.0000 7.0000 0.0000
        }
      }
    }
  }
}
MOTION
Frames:	31
Frame Time:	0.033333
-14.5618 14.4545 31.8175 61.71 5.81 158.25 19.60 -18.15 46.86 180.00 78.40 -175.01 20.26 9.82 -29.60 10.01 -39.92 4.11 -0.00 47.22 -3.00 16.36 8.63 9.05 8.45 40.10 2.97 0.00 0.00 0.00 47.57 3.06 -25.22 -0.00 -35.42 4.13 45.31 -33.50 -11.27 0.00 0.00 0.00 -54.86 -48.96 14.66 -179.98 -89.95 177.99 -14.52 5.43 46.91 0.00 0.00 0.00 20.94 10.97 -9.26 
-14.6011 14.4537 30.6162 60.36 5.29 158.02 19.97 -18.65 46.45 -180.00 78.11 -175.11 19.10 8.58 -29.63 9.45 -40.75 4.79 -0.00 48.80 -3.36 14.21 13.00 11.27 8.29 40.73 3.78 0.00 0.00 0.00 46.72 2.86 -23.43 -0.00 -35.13 3.93 44.36 -32.47 -10.38 0.00 0.00 0.00 -63.85 -58.65 12.69 -180.00 -89.22 179.36 -15.59 7.64 43.87 0.00 0.00 0.00 18.78 12.45 -8.03 
-14.6065 14.4904 28.8100 58.51 4.59 157.63 19.83 -19.93 45.73 180.00 77.70 -175.38 17.41 6.37 -28.91 8.33 -41.32 4.31 0.00 51.21 -4.06 11.47 16.40 12.72 8.46 42.02 5.61 0.00 0.00 0.00 46.26 2.91 -21.32 -0.00 -34.40 3.78 43.84 -34.55 -7.19 0.00 0.00 0.00 -91.35 -68.35 -7.22 180.00 -87.72 -177.72 -14.69 10.98 38.36 0.00 0.00 0.00 17.84 14.63 -6.16 
-14.2818 14.5426 28.2452 56.74 3.92 157.17 19.88 -21.59 45.91 -180.00 77.44 -175.68 16.31 4.80 -28.02 7.53 -42.46 3.82 0.00 52.96 -4.39 10.38 19.13 12.16 8.27 42.79 7.32 0.00 0.00 0.00 45.32 1.87 -19.81 -0.00 -33.95 3.50 43.06 -35.85 -5.89 0.00 0.00 0.00 -123.15 -68.80 -32.90 -180.00 -88.03 -177.66 -13.87 9.25 35.12 0.00 0.00 0.00 17.50 16.12 -6.18 
-14.4752 14.6008 27.7252 55.17 3.49 157.04 20.11 -23.33 46.08 180.00 77.04 -175.91 15.82 3.18 -27.37 4.70 -43.41 2.20 -0.00 53.31 -4.87 10.82 22.68 11.83 7.51 42.98 8.91 0.00 0.00 0.00 43.41 0.96 -19.20 -0.00 -32.00 3.07 43.00 -37.31 -4.69 0.00 0.00 0.00 -143.64 -66.53 -47.07 -180.00 -88.72 -179.19 -15.19 6.24 34.20 0.00 0.00 0.00 17.23 15.25 -6.56 
-14.4017 14.6627 27.6679 53.31 2.89 157.31 19.76 -24.12 46.53 180.00 76.54 -175.91 15.82 0.60 -27.19 1.90 -44.97 -0.07 0.00 54.18 -5.34 11.54 24.55 12.12 6.98 43.22 10.10 0.00 0.00 0.00 41.61 0.17 -18.61 0.00 -29.43 2.71 43.32 -38.88 -3.14 0.00 0.00 0.00 -154.39 -64.52 -53.87 -180.00 -89.82 178.78 -16.30 2.82 34.96 0.00 0.00 0.00 17.99 13.05 -6.80 
-14.3011 14.7511 27.6797 51.33 2.23 157.87 18.65 -24.53 46.58 -180.00 76.56 -176.08 16.07 -2.66 -29.17 -1.47 -46.55 -2.88 -0.00 55.35 -5.67 12.82 24.30 13.68 6.47 42.87 11.06 0.00 0.00 0.00 40.07 -1.40 -17.48 0.00 -26.24 2.44 42.90 -40.19 -2.83 0.00 0.00 0.00 -159.47 -63.07 -56.21 0.00 -88.81 -3.01 -16.74 -0.24 35.77 0.00 0.00 0.00 18.87 11.17 -7.06 
-14.0397 14.8528 27.9992 49.28 1.65 158.81 17.66 -25.59 46.85 -180.00 75.86 -176.28 16.48 -4.97 -30.62 -5.59 -48.61 -6.09 0.00 57.02 -5.91 15.27 23.45 15.50 5.76 42.35 12.17 0.00 0.00 0.00 38.61 -3.18 -16.17 0.00 -22.77 2.22 42.72 -41.35 -2.96 0.00 0.00 0.00 -158.83 -62.41 -53.99 0.00 -87.70 -4.66 -16.63 -2.93 36.88 0.00 0.00 0.00 20.48 9.82 -8.38 
-13.5925 15.0349 28.5157 47.49 1.47 160.19 16.48 -26.69 46.68 180.00 74.38 -176.60 14.52 -5.12 -27.38 -9.84 -50.52 -8.92 -0.00 58.57 -5.90 18.46 23.31 17.77 4.93 41.34 13.04 0.00 0.00 0.00 36.94 -4.94 -15.37 -0.00 -21.64 2.17 42.99 -41.43 -4.29 0.00 0.00 0.00 -154.73 -63.11 -48.62 0.00 -87.60 -6.18 -16.87 -4.35 37.59 0.00 0.00 0.00 22.54 8.57 -10.78 
-13.3471 15.2360 28.5394 46.16 1.47 161.73 13.33 -27.75 44.70 180.00 73.48 -177.01 13.22 -5.58 -25.57 -14.38 -51.45 -11.88 -0.00 59.77 -5.99 20.44 23.78 21.96 4.16 40.44 13.38 0.00 0.00 0.00 36.43 -6.45 -14.77 -0.00 -19.34 1.92 43.84 -43.39 -5.40 0.00 0.00 0.00 -147.52 -64.75 -40.37 -0.00 -87.72 -7.43 -17.18 -5.03 38.48 0.00 0.00 0.00 25.00 7.73 -13.81 
-13.2961 15.4577 28.4129 45.10 1.03 163.33 11.64 -29.51 40.80 -180.00 73.11 -176.44 11.91 -5.01 -26.74 -17.40 -51.41 -14.10 -0.00 58.82 -5.86 20.69 25.45 27.80 3.45 40.19 13.68 0.00 0.00 0.00 36.55 -7.49 -13.99 0.00 -16.02 1.60 45.33 -46.98 -5.48 0.00 0.00 0.00 -134.27 -66.87 -27.59 -0.00 -87.76 -8.91 -17.68 -5.83 40.59 0.00 0.00 0.00 27.79 6.74 -16.95 
-13.2367 15.6603 28.2793 44.30 0.78 165.00 10.61 -29.82 37.19 -180.00 72.96 -175.77 12.02 -5.97 -33.39 -19.18 -50.97 -15.40 0.00 57.69 -5.46 19.68 26.93 34.13 2.82 39.73 13.93 0.00 0.00 0.00 36.63 -8.77 -13.05 0.00 -14.26 1.48 45.76 -49.38 -6.97 0.00 0.00 0.00 -113.79 -67.51 -10.46 0.00 -87.38 -10.41 -18.24 -7.27 42.16 0.00 0.00 0.00 29.91 6.42 -19.82 
-13.0214 15.8400 28.1378 43.59 0.70 166.89 10.95 -29.49 35.90 -180.00 74.44 -175.09 12.50 -4.69 -36.70 -19.85 -50.38 -15.63 0.00 58.10 -5.03 19.62 27.07 38.68 2.13 39.14 14.55 0.00 0.00 0.00 37.05 -11.18 -11.32 -0.00 -13.08 1.60 44.38 -51.66 -10.26 0.00 0.00 0.00 -91.58 -63.59 5.86 -0.00 -86.95 -11.50 -18.45 -9.31 43.06 0.00 0.00 0.00 31.72 6.28 -21.84 
-12.2508 16.0234 27.9923 42.68 0.19 169.68 12.63 -29.29 35.03 180.00 76.79 -174.58 12.77 -1.99 -39.75 -19.08 -50.77 -14.66 -0.00 60.03 -4.48 21.23 26.11 39.34 0.98 39.04 15.73 0.00 0.00 0.00 37.35 -15.59 -9.14 -0.00 -12.04 1.60 42.58 -53.92 -14.24 0.00 0.00 0.00 -74.17 -52.37 16.16 0.00 -85.46 -12.76 -18.84 -13.52 44.28 0.00 0.00 0.00 33.62 5.56 -24.76 
-11.7058 16.1933 27.7853 42.22 -0.14 172.68 14.44 -28.93 33.30 180.00 80.62 -174.29 11.30 4.40 -43.27 -17.38 -49.69 -13.02 -0.00 61.52 -4.46 23.10 25.40 38.34 -0.14 38.34 16.35 0.00 0.00 0.00 38.25 -20.91 -8.35 -0.00 -10.64 0.89 41.59 -54.35 -16.66 0.00 0.00 0.00 -66.98 -38.15 17.29 -0.00 -84.56 -12.22 -19.69 -16.98 41.54 0.00 0.00 0.00 35.34 4.68 -27.51 
-11.3479 16.3517 27.4870 42.21 -0.26 175.35 16.09 -28.31 30.41 180.00 83.26 -174.12 4.80 13.31 -46.36 -17.54 -49.18 -12.88 -0.00 64.34 -4.72 26.04 24.36 37.96 -0.57 37.66 15.76 0.00 0.00 0.00 40.50 -24.70 -8.11 0.00 -8.51 0.30 41.91 -55.03 -16.22 0.00 0.00 0.00 -65.70 -24.48 12.48 -0.00 -85.41 -9.66 -19.88 -18.64 36.09 0.00 0.00 0.00 36.54 3.98 -29.68 
-10.4316 16.4748 26.6659 42.68 0.02 177.66 17.00 -27.68 26.42 180.00 82.75 -173.82 -1.26 18.71 -45.66 -19.07 -48.93 -13.92 0.00 67.74 -5.24 28.17 24.84 37.76 -0.94 37.16 14.81 0.00 0.00 0.00 43.73 -26.92 -6.89 -0.00 -6.74 0.31 41.99 -56.26 -16.03 0.00 0.00 0.00 -64.50 -16.06 5.43 0.02 -88.89 -7.39 -18.06 -16.09 32.67 0.00 0.00 0.00 36.53 3.66 -29.97 
-9.2261 16.5677 25.8578 43.65 0.73 179.31 17.77 -27.58 22.88 -180.00 77.66 -173.57 -5.56 20.22 -46.65 -20.90 -48.69 -15.45 0.00 69.71 -5.60 28.73 27.47 37.57 -1.19 36.98 13.44 0.00 0.00 0.00 46.06 -27.38 -5.96 0.00 -4.58 0.28 42.82 -57.48 -15.68 0.00 0.00 0.00 -58.14 -17.62 -2.95 180.00 -85.45 171.78 -12.33 -9.11 34.76 0.00 0.00 0.00 35.64 4.43 -28.97 
-8.1916 16.7052 24.4436 44.92 1.80 -179.16 17.28 -27.05 21.32 -180.00 67.39 -173.73 -0.15 7.88 -33.65 -21.22 -47.97 -15.39 -0.00 73.15 -5.37 28.51 27.38 39.41 -1.99 37.19 13.49 0.00 0.00 0.00 48.25 -27.05 -4.16 -0.00 -3.33 0.49 41.97 -59.78 -17.74 0.00 0.00 0.00 -49.12 -29.05 -5.66 -180.00 -82.42 169.42 -9.11 -0.14 39.11 0.00 0.00 0.00 34.56 6.75 -27.06 
-6.7707 16.7921 23.0920 45.48 2.13 -177.34 17.54 -26.66 19.49 180.00 62.51 -174.71 0.02 4.62 -30.13 -20.55 -47.26 -16.62 0.00 78.22 -5.37 26.50 23.47 44.05 -2.04 38.43 15.12 0.00 0.00 0.00 51.79 -27.93 -1.67 0.00 -3.24 0.82 40.17 -62.22 -18.64 0.00 0.00 0.00 -35.96 -43.40 3.46 179.98 -86.18 168.47 -10.36 5.32 45.97 0.00 0.00 0.00 34.77 7.80 -25.34 
-4.2160 16.9615 22.0876 45.24 1.61 -175.18 17.56 -28.64 19.18 180.00 59.23 -175.59 0.91 4.15 -26.28 -19.00 -47.10 -18.69 0.00 83.76 -4.85 28.68 19.03 43.53 -1.78 39.60 17.74 0.00 0.00 0.00 55.06 -31.26 -0.24 0.00 -4.33 0.55 38.35 -62.91 -19.05 0.00 0.00 0.00 -16.27 -54.87 24.61 0.00 -81.79 -9.36 -13.86 5.87 51.08 0.00 0.00 0.00 35.36 7.73 -25.81 
-1.2208 17.0421 20.9439 44.32 0.67 -172.49 17.93 -29.48 20.35 -180.00 56.87 -175.68 2.81 2.87 -22.60 -15.74 -46.88 -20.09 -179.98 89.46 175.78 34.40 11.08 38.79 -1.67 40.42 20.72 0.00 0.00 0.00 56.82 -37.29 -0.98 -0.00 -6.76 -0.19 37.86 -61.76 -19.18 0.00 0.00 0.00 8.57 -59.35 54.56 0.00 -62.32 -4.51 -19.89 1.28 51.09 0.00 0.00 0.00 35.94 6.87 -28.42 
-0.2412 17.0980 20.5504 43.09 -0.60 -169.32 16.10 -30.56 23.33 180.00 55.70 -176.23 5.75 1.69 -16.24 -15.10 -46.06 -20.91 -180.00 88.82 175.77 39.59 7.26 36.43 -1.75 41.07 23.62 0.00 0.00 0.00 58.46 -44.80 -2.74 -0.00 -9.09 -0.93 38.92 -60.26 -17.93 0.00 0.00 0.00 30.95 -58.93 84.02 -0.00 -39.77 1.18 -26.37 -1.37 44.11 0.00 0.00 0.00 36.37 7.09 -32.07 
0.1494 17.1955 20.4739 41.97 -2.08 -165.17 17.85 -31.19 23.86 -180.00 54.79 -176.00 7.11 0.60 -15.11 -16.45 -46.21 -21.74 -180.00 87.05 175.35 45.82 2.83 34.91 -2.74 41.60 26.79 0.00 0.00 0.00 61.34 -51.75 -3.36 -0.00 -10.69 -1.10 41.17 -60.57 -15.97 0.00 0.00 0.00 46.64 -57.13 106.65 -0.00 -20.79 4.68 -28.38 0.54 34.09 0.00 0.00 0.00 36.00 6.85 -35.99 
0.3908 17.2278 19.9973 41.36 -3.67 -160.71 19.67 -31.82 24.49 180.00 56.29 -175.71 6.76 2.21 -12.25 -18.45 -46.14 -22.79 180.00 84.38 174.80 51.84 -0.95 33.79 -3.51 42.03 28.77 0.00 0.00 0.00 65.70 -58.08 -2.15 0.00 -11.74 -0.85 43.19 -61.16 -14.44 0.00 0.00 0.00 54.68 -56.58 117.51 -0.00 -10.37 4.20 -26.62 -0.24 30.09 0.00 0.00 0.00 35.84 7.11 -38.00 
0.9913 17.3137 19.3370 41.35 -5.90 -155.66 21.44 -34.96 24.59 180.00 54.73 -175.76 5.47 1.90 -9.17 -20.04 -46.77 -24.83 180.00 81.28 174.62 54.96 -4.63 33.27 -4.05 42.60 30.37 0.00 0.00 0.00 76.21 -63.61 3.66 -0.00 -12.27 -1.50 48.46 -60.46 -8.94 0.00 0.00 0.00 57.66 -57.34 119.87 0.00 -5.72 1.83 -26.64 -4.45 34.59 0.00 0.00 0.00 36.26 6.87 -38.96 
1.6262 17.4544 19.1086 41.37 -7.52 -151.25 21.23 -37.55 23.59 180.00 54.65 -176.04 3.86 2.31 -5.27 -21.83 -47.84 -27.58 180.00 79.20 174.72 57.16 -6.83 31.42 -3.18 42.02 29.35 0.00 0.00 0.00 89.75 -67.57 15.05 0.00 -12.60 -0.92 47.49 -60.64 -9.54 0.00 0.00 0.00 58.59 -59.30 116.54 0.00 -3.03 -0.93 -26.43 -9.93 37.59 0.00 0.00 0.00 36.17 6.24 -40.57 
2.4574 17.5511 18.7784 41.59 -8.60 -147.52 20.98 -39.33 22.99 -180.00 54.75 -176.25 2.34 2.35 -1.87 -21.65 -49.48 -28.98 -180.00 77.69 175.43 58.15 -9.15 28.37 -2.16 41.31 26.18 0.00 0.00 0.00 98.70 -68.97 21.88 -0.00 -10.70 -0.79 48.61 -60.99 -8.96 0.00 0.00 0.00 58.27 -60.21 114.62 -0.00 -4.82 -1.19 -25.00 -11.50 38.10 0.00 0.00 0.00 34.52 6.05 -41.78 
2.8398 17.8119 18.4823 41.75 -8.96 -144.34 19.98 -41.75 22.13 180.00 52.45 -176.66 1.68 1.05 1.08 -22.53 -50.18 -29.92 180.00 76.02 175.55 59.26 -9.33 27.11 -1.41 40.43 23.25 0.00 0.00 0.00 105.77 -68.59 25.64 0.00 -8.01 -1.48 51.08 -60.39 -6.20 0.00 0.00 0.00 59.97 -60.15 115.95 0.00 -6.72 -0.92 -23.76 -10.76 37.67 0.00 0.00 0.00 33.64 6.91 -42.27 
3.7719 17.9613 18.2945 41.60 -9.13 -141.46 19.42 -43.05 20.17 -180.00 54.27 -176.57 0.30 2.60 2.91 -21.85 -51.71 -30.19 -180.00 75.31 175.98 59.30 -9.73 25.49 -0.89 39.82 21.77 0.00 0.00 0.00 115.05 -68.47 31.19 0.00 -6.48 -1.74 51.15 -59.37 -5.93 0.00 0.00 0.00 63.15 -59.28 118.61 0.00 -5.66 -0.54 -23.48 -10.08 36.93 0.00 0.00 0.00 34.02 8.03 -42.31 
4.3016 18.0218 18.3425 41.18 -9.17 -138.94 17.70 -43.38 17.80 180.00 56.83 -176.37 -0.65 3.85 5.10 -21.75 -52.32 -30.24 -180.00 76.01 175.99 59.35 -8.84 24.82 -0.38 39.29 20.88 0.00 0.00 0.00 125.49 -69.62 38.38 0.00 -5.06 -1.56 48.76 -58.38 -9.20 0.00 0.00 0.00 65.86 -59.10 120.71 -0.00 -3.21 -0.16 -23.37 -9.94 35.50 0.00 0.00 0.00 34.56 9.50 -42.79 
